# xmcd CD database file generated by OrangeCD 4.2
#
# Track frame offsets:
#	182
#	13000
#	26052
#	38405
#	52740
#	66947
#	80267
#	93415
#	108387
#	123445
#	138495
#	152852
#	167265
#	179962
#	195772
#	208137
#	222922
#	235957
#	249312
#	262977
#	276877
#	289017
#	302807
#	314530
#	325927
#
# Disc length: 4468 seconds
#
# Revision: 2
# Processed by: cddbd v1.4PL0 Copyright (c) Steve Scherf et al.
# Submitted via: OrangeCD 4.2
#
DISCID=60117219
DTITLE=Jimmy Rogers - The Complete Chess Recordings [CD1]
DYEAR=1997
DGENRE=Blues
TTITLE0=That's All Right
TTITLE1=Luedella
TTITLE2=Goin' Away Baby
TTITLE3=Today, Today Blues
TTITLE4=I Used To Have A Woman
TTITLE5=The World's In A Tangle
TTITLE6=She Loves Another Man
TTITLE7=Money, Marbles and Chalk
TTITLE8=Hard Working Man
TTITLE9=Chance To Love
TTITLE10=My Little Machine
TTITLE11=Back Door Friend
TTITLE12=Crying Shame
TTITLE13=Mistreated Baby
TTITLE14=The Last Time
TTITLE15=What's The Matter?
TTITLE16=Out On The Road
TTITLE17=Left Me With A Broken Heart
TTITLE18=Act Like You Love Me
TTITLE19=Blues All Day Long (Blues Leave Me Alone)
TTITLE20=Chicago Bound
TTITLE21=Sloppy Drunk
TTITLE22=You're The One (First Version)
TTITLE23=You're The One
TTITLE24=If It Ain't Me (Who Are You Thinking Of)
EXTD=
EXTT0=
EXTT1=
EXTT2=
EXTT3=
EXTT4=
EXTT5=
EXTT6=
EXTT7=
EXTT8=
EXTT9=
EXTT10=
EXTT11=
EXTT12=
EXTT13=
EXTT14=
EXTT15=
EXTT16=
EXTT17=
EXTT18=
EXTT19=
EXTT20=
EXTT21=
EXTT22=
EXTT23=
EXTT24=
PLAYORDER=
